<?xml version="1.0" encoding="UTF-8" standalone="no"?><!-- Generator: Gravit.io --><svg xmlns="http://www.w3.org/2000/svg" xmlns:xlink="http://www.w3.org/1999/xlink" style="isolation:isolate" viewBox="0 0 18.38 14.384" width="18.38pt" height="14.384pt"><defs><clipPath id="_clipPath_F1MjPkuM7ap0cBhKUrJksCiHWCeSronc"><rect width="18.38" height="14.384"/></clipPath></defs><g clip-path="url(#_clipPath_F1MjPkuM7ap0cBhKUrJksCiHWCeSronc)"><rect width="18.38" height="14.384" style="fill:rgb(0,0,0)" fill-opacity="0"/><path d=" M 18.041 8.281 C 18.059 8.269 18.074 8.255 18.09 8.24 C 18.27 8.05 18.38 7.79 18.38 7.53 C 18.38 7.26 18.27 7.01 18.09 6.82 C 18.062 6.792 18.032 6.765 18.001 6.741 L 11.56 0.29 C 11.37 0.11 11.12 0 10.85 0 C 10.59 0 10.33 0.11 10.14 0.29 C 9.96 0.48 9.85 0.73 9.85 1 C 9.85 1.27 9.96 1.52 10.14 1.71 L 14.967 6.53 L 1 6.53 C 0.73 6.53 0.48 6.63 0.29 6.82 C 0.11 7.01 0 7.26 0 7.53 C 0 7.79 0.11 8.05 0.29 8.24 C 0.48 8.42 0.73 8.53 1 8.53 L 14.963 8.53 L 10.82 12.68 C 10.63 12.86 10.53 13.12 10.53 13.38 C 10.53 13.65 10.63 13.9 10.82 14.09 C 11.01 14.28 11.26 14.38 11.53 14.38 C 11.79 14.38 12.05 14.28 12.23 14.09 L 17.99 8.34 C 18.008 8.322 18.026 8.302 18.041 8.281 Z " fill-rule="evenodd" fill="rgb(255,255,255)"/></g></svg>