<?xml version="1.0" encoding="UTF-8" standalone="no"?><!-- Generator: Gravit.io --><svg xmlns="http://www.w3.org/2000/svg" xmlns:xlink="http://www.w3.org/1999/xlink" style="isolation:isolate" viewBox="0 0 11.3 8.787" width="11.3pt" height="8.787pt"><defs><clipPath id="_clipPath_oDa5OL8uCCKw94ZoH16dPiuaUhHY3oGd"><rect width="11.3" height="8.787"/></clipPath></defs><g clip-path="url(#_clipPath_oDa5OL8uCCKw94ZoH16dPiuaUhHY3oGd)"><rect width="11.3" height="8.787" style="fill:rgb(0,0,0)" fill-opacity="0"/><path d=" M 11.119 4.984 C 11.132 4.978 11.141 4.969 11.15 4.96 C 11.25 4.87 11.3 4.74 11.3 4.61 C 11.3 4.47 11.25 4.35 11.15 4.25 C 11.145 4.245 11.14 4.24 11.133 4.237 C 11.13 4.23 11.125 4.225 11.12 4.22 L 7.05 0.15 C 6.95 0.05 6.83 0 6.69 0 C 6.56 0 6.43 0.05 6.34 0.15 C 6.25 0.24 6.19 0.37 6.19 0.5 C 6.19 0.63 6.25 0.76 6.34 0.85 L 9.6 4.11 L 0.5 4.11 C 0.37 4.11 0.24 4.16 0.15 4.25 C 0.05 4.35 0 4.47 0 4.61 C 0 4.74 0.05 4.87 0.15 4.96 C 0.24 5.05 0.37 5.11 0.5 5.11 L 9.582 5.11 L 6.77 7.93 C 6.67 8.03 6.62 8.15 6.62 8.29 C 6.62 8.42 6.67 8.55 6.77 8.64 C 6.86 8.73 6.99 8.79 7.12 8.79 C 7.25 8.79 7.38 8.73 7.47 8.64 L 11.09 5.02 C 11.102 5.01 11.113 4.999 11.119 4.984 Z " fill-rule="evenodd" fill="rgb(230,139,102)"/></g></svg>